<svg xmlns="http://www.w3.org/2000/svg"  viewBox="0 0 64 64" width="64px" height="64px"><path fill="#f4c772" d="M51.462,28.371H46.16h-2.573c0.133-0.334,0.256-0.663,0.373-0.983	c0.271-0.748,0.294-1.671,0.06-2.409c-1.009-3.174-2.19-6.513-4.527-9.383c-0.135-0.165-0.247-0.435-0.366-0.721	c-0.074-0.178-0.149-0.355-0.232-0.526l-0.578-1.182l-0.985,0.873l-0.366,0.324l-0.351,0.312l-0.142,0.126	c-1.409-2.195-1.787-4.58-1.157-7.266c0.221-0.943,0.368-1.901,0.51-2.826c0.064-0.414,0.127-0.828,0.197-1.24l-1.861-0.652	c-1.139,2.056-1.97,4.188-2.773,6.25l-0.134,0.343c-0.999,2.56-0.698,3.945,1.289,5.928l0.185,0.185	c0.745,0.741,1.515,1.508,2.012,2.34c0.378,0.634,0.181,1.183,0.03,1.453c-0.295,0.529-0.856,0.851-1.5,0.862	c-0.117,0.002-0.235,0.002-0.355,0.002l-0.317-0.001l-0.376-0.001h-0.906l-0.089,0.902c-0.256,2.592-1.871,4.439-3.581,6.395	l-0.367,0.42c-2.049,2.357-3.61,4.34-4.913,6.239c-0.785,1.143-1.141,1.912-1.105,2.624c-0.601-1.594-1.207-3.189-1.813-4.772	c-0.406-1.059-0.432-1.361,0.25-1.897l-0.618-1.786h-6.542h-1.601l0.702,1.439c0.22,0.451,0.446,0.888,0.667,1.318	c0.454,0.88,0.883,1.71,1.212,2.561c2.274,5.884,4.564,11.876,6.777,17.671c0.995,2.605,1.99,5.21,2.988,7.814	c0.155,0.406,0.327,0.795,0.526,1.246c0.1,0.226,0.207,0.469,0.323,0.74l1.85-0.031c0.282-0.722,0.538-1.419,0.785-2.094	c0.518-1.413,1.007-2.748,1.628-3.966c0.629-1.233,1.397-2.382,2.287-3.713c0.153-0.229,0.309-0.462,0.466-0.699l1.827,2.593	l1.82,2.583l-0.327,0.153l0.17,0.781c0.057,0.262,0.11,0.526,0.162,0.79c0.141,0.71,0.286,1.444,0.527,2.167	c0.192,0.579,0.691,0.86,1.055,1.066c0.086,0.049,0.174,0.095,0.247,0.149l1.164,0.845l0.387-1.385	c0.023-0.083,0.063-0.172,0.1-0.261c0.127-0.308,0.293-0.743,0.216-1.202c0.113,0.33,0.223,0.665,0.341,0.981	c0.082,0.22,0.163,0.441,0.242,0.662l0.498,1.4l1.109-0.989c0.74-0.66,1.028-1.292,1.213-1.823c0.368-1.061,0.73-2.125,1.091-3.189	c0.645-1.898,1.311-3.861,2.008-5.771c0.86-2.357,1.661-4.769,2.435-7.103c1.47-4.429,2.991-9.009,4.937-13.248l0.651-1.417	L51.462,28.371L51.462,28.371z M37.298,25.891c-0.94,1.091-2.021,2.162-3.213,3.183c-0.715,0.613-1.462,1.223-2.185,1.813	c-1.935,1.581-3.919,3.202-5.636,5.135c0.504-1.836,1.651-3.475,3.501-5.005c2.117-1.751,4.368-3.432,6.545-5.057l0.702-0.525	c0.671-0.502,1.212-1.016,1.626-1.549C38.331,24.546,37.885,25.209,37.298,25.891z M33.183,48.362l0.006-0.006	c0.04,0.055,0.082,0.11,0.125,0.165C33.269,48.469,33.226,48.416,33.183,48.362z M34.042,49.375	c-0.186-0.216-0.369-0.427-0.547-0.637c0.034,0.038,0.069,0.076,0.105,0.113c0.412,0.424,0.787,0.868,1.131,1.33	C34.504,49.909,34.272,49.641,34.042,49.375z M39.164,48.02l-2.547-2.639l0.439-0.29l3.795-2.503l1.298-0.856l-1.318-0.826	l-0.015-0.009c0.986-0.705,2.022-1.462,2.765-2.453l-2.8,8.412l-0.703,2.111L39.164,48.02z M45.595,30.196	c0.501,0.343,0.522,0.543,0.169,1.641c-0.377,1.174-0.756,2.321-1.136,3.462c-0.001-0.324-0.028-0.666-0.086-1.028l-0.283-1.783	l-1.362,1.186c-0.579,0.505-0.972,1.104-1.319,1.633c-0.128,0.195-0.255,0.39-0.392,0.578c-0.22,0.303-0.434,0.616-0.648,0.931	c-0.617,0.906-1.2,1.762-1.935,2.348c-1.499,1.197-3.19,2.252-4.825,3.273c-0.453,0.283-0.907,0.566-1.357,0.852	c-0.045,0.029-0.154,0.065-0.241,0.081c-0.736-0.471-1.441-0.994-2.249-1.594c-0.02-0.015-0.041-0.03-0.061-0.045	c0.469-0.463,0.877-0.864,1.31-1.168l0.264-0.186c1.719-1.211,3.497-2.463,5.326-3.511c3.621-2.075,5.495-5.28,6.676-8.144	L45.595,30.196z M22.825,39.398c0.312,0.351,0.682,0.803,0.782,1.182c0.188,0.715,0.313,1.447,0.446,2.221	c0.104,0.606,0.211,1.232,0.352,1.854c0.163,0.721,0.658,2.913,3.161,3.174c0.011,0.002,0.024,0.007,0.039,0.014l-1.523,1.786	c-0.017-0.045-0.034-0.089-0.051-0.134c-0.623-1.661-1.244-3.322-1.864-4.984c-0.793-2.124-1.601-4.285-2.416-6.453	C22.01,38.453,22.37,38.885,22.825,39.398z M37.222,56.512c-0.137-0.214-0.273-0.428-0.407-0.643l0.448-0.328l-0.089-0.597	c-0.005-0.032-0.01-0.064-0.015-0.096c0.415,1.105,0.781,2.267,1.147,3.474c0.009,0.029,0.02,0.055,0.029,0.084	C38.001,57.737,37.607,57.113,37.222,56.512z"/><path fill="#80a5dc" d="M43.047,25.222c-1.017-3.195-2.165-6.337-4.331-8.994c-0.331-0.406-0.485-0.956-0.722-1.439	c-0.239,0.212-0.478,0.424-0.717,0.636c0.359,0.555,0.693,1.129,1.081,1.663c2.439,3.352,2.384,6.336-0.304,9.456	c-1.014,1.177-2.139,2.278-3.32,3.29c-3.204,2.745-6.706,5.171-9.181,8.684c-0.027,0.038-0.175-0.008-0.548-0.036	c0.079-0.868,0.044-1.761,0.258-2.59c0.601-2.328,2.06-4.153,3.863-5.644C31.488,28.296,35.545,25.836,38,24	c2.015-1.507,0.921-3.68-0.43-5.803c-0.466-0.732-0.941-1.462-1.457-2.159c-1.838-2.48-2.525-5.613-1.8-8.614	c0.327-1.354,0.489-2.746,0.723-4.122c-1.168,2.108-2,4.293-2.85,6.472c-0.857,2.195-0.617,3.179,1.064,4.857	c0.848,0.847,1.744,1.706,2.349,2.72c1.03,1.726-0.289,3.795-2.313,3.827c-0.333,0.005-0.667,0.001-1.064,0.001	c-0.307,3.109-2.294,5.193-4.188,7.373c-1.711,1.968-3.37,4.001-4.843,6.148c-1.376,2.006-1.224,2.224,0.382,4.033	c0.414,0.466,0.849,1.012,1.001,1.593c0.353,1.347,0.498,2.747,0.806,4.108c0.276,1.222,0.788,2.243,2.289,2.4	c0.471,0.049,0.902,0.48,1.44,0.786l0.985-0.854l-2.248-3.909l0.479-1.023c0.889-0.827,1.517-1.554,2.279-2.09	c1.852-1.303,3.706-2.622,5.668-3.746c3.557-2.038,5.419-5.291,6.748-8.952C43.2,26.55,43.208,25.726,43.047,25.222z"/><path fill="#8c6c9e" d="M8.256,37.609c-0.407,0-0.79-0.251-0.938-0.655c-0.19-0.519,0.075-1.093,0.594-1.283l1.878-0.689 c0.523-0.19,1.094,0.076,1.283,0.594c0.19,0.519-0.075,1.093-0.594,1.283l-1.878,0.689C8.486,37.59,8.37,37.609,8.256,37.609z"/><path fill="#8c6c9e" d="M9.979,42.304c-0.407,0-0.79-0.251-0.938-0.655c-0.19-0.519,0.075-1.093,0.594-1.283l1.877-0.689 c0.518-0.191,1.093,0.076,1.283,0.594c0.19,0.519-0.075,1.093-0.594,1.283l-1.877,0.689C10.21,42.284,10.093,42.304,9.979,42.304z"/><path fill="#8c6c9e" d="M11.7,46.997c-0.407,0-0.79-0.251-0.938-0.656c-0.19-0.519,0.076-1.093,0.595-1.282l1.878-0.688 c0.519-0.19,1.093,0.076,1.282,0.595c0.19,0.519-0.076,1.093-0.595,1.282l-1.878,0.688C11.931,46.978,11.814,46.997,11.7,46.997z"/><path fill="#8c6c9e" d="M13.422,51.691c-0.407,0-0.79-0.251-0.938-0.656c-0.19-0.519,0.076-1.093,0.595-1.282l1.878-0.688 c0.518-0.191,1.093,0.076,1.282,0.595c0.19,0.519-0.076,1.093-0.595,1.282l-1.878,0.688C13.652,51.672,13.536,51.691,13.422,51.691 z"/><path fill="#8c6c9e" d="M15.145,56.386c-0.407,0-0.79-0.251-0.938-0.655c-0.19-0.519,0.075-1.093,0.594-1.283l1.877-0.689 c0.518-0.191,1.093,0.076,1.283,0.594c0.19,0.519-0.075,1.093-0.594,1.283l-1.877,0.689C15.376,56.366,15.259,56.386,15.145,56.386 z"/><path fill="#8c6c9e" d="M16.866,61.08c-0.407,0-0.79-0.251-0.938-0.655c-0.19-0.519,0.075-1.093,0.594-1.283l1.878-0.689 c0.521-0.19,1.093,0.076,1.283,0.594c0.19,0.519-0.075,1.093-0.594,1.283l-1.878,0.689C17.097,61.061,16.98,61.08,16.866,61.08z"/><path fill="#8c6c9e" d="M51.467,27.371h-0.005H46.16c-0.492,0-0.953,0.18-1.307,0.486c0.016-0.043,0.031-0.086,0.047-0.128 c0.348-0.959,0.376-2.101,0.073-3.053c-1.038-3.266-2.256-6.706-4.705-9.711c-0.049-0.067-0.151-0.312-0.218-0.474 c-0.082-0.196-0.165-0.392-0.257-0.58c-0.274-0.562-0.796-0.963-1.409-1.084c-0.129-0.026-0.259-0.038-0.388-0.038 c-0.452,0-0.893,0.153-1.25,0.439c-0.774-1.672-0.923-3.475-0.457-5.462c0.23-0.981,0.38-1.958,0.525-2.903 c0.058-0.375,0.115-0.75,0.178-1.124c0.031-0.14,0.048-0.286,0.048-0.436c0-1.074-0.844-1.95-1.906-1.998 c-0.032-0.002-0.064-0.002-0.096-0.002c-0.077,0-0.154,0.004-0.229,0.013c-0.331,0.038-0.637,0.156-0.898,0.335 c-0.184,0.126-0.349,0.283-0.485,0.469c-0.058,0.079-0.111,0.163-0.157,0.251c-1.161,2.103-1.999,4.254-2.81,6.335l-0.134,0.343 c-1.138,2.916-0.742,4.748,1.514,6.999l0.186,0.186c0.733,0.73,1.426,1.419,1.858,2.144c0.065,0.108,0.125,0.258,0.016,0.454 c-0.045,0.08-0.223,0.342-0.643,0.349c-0.112,0.002-0.225,0.002-0.34,0.002l-0.313-0.001l-0.38-0.001 c-1.028,0-1.889,0.78-1.99,1.803c-0.224,2.273-1.668,3.924-3.339,5.835l-0.369,0.422c-2.074,2.387-3.658,4.398-4.983,6.329 c-0.094,0.137-0.183,0.271-0.267,0.401c-0.297-0.782-0.595-1.563-0.893-2.341c-0.113-0.295-0.183-0.505-0.208-0.628 c0.03-0.03,0.075-0.073,0.142-0.125c0.67-0.527,0.933-1.421,0.654-2.226c-0.279-0.806-1.038-1.346-1.89-1.346h-6.542 c-0.69,0-1.331,0.355-1.696,0.94c-0.365,0.585-0.404,1.317-0.101,1.937c0.224,0.458,0.452,0.901,0.677,1.338 c0.441,0.855,0.858,1.663,1.168,2.463c2.273,5.881,4.562,11.872,6.775,17.666c0.995,2.606,1.991,5.212,2.989,7.817 c0.164,0.429,0.341,0.829,0.545,1.292c0.098,0.223,0.205,0.463,0.32,0.731c0.316,0.735,1.039,1.209,1.837,1.209 c0.011,0,0.022,0,0.034,0c0.811-0.014,1.534-0.516,1.829-1.271c0.285-0.729,0.543-1.433,0.793-2.114 c0.529-1.444,0.986-2.691,1.58-3.856c0.522-1.023,1.157-2.005,1.884-3.098l0.832,1.181l1.691,2.4 c-0.088,0.309-0.105,0.642-0.033,0.974c0.056,0.256,0.107,0.514,0.158,0.772c0.147,0.74,0.299,1.505,0.558,2.287 c0.314,0.945,1.093,1.385,1.512,1.622c0.055,0.031,0.111,0.06,0.16,0.093c0.345,0.251,0.754,0.38,1.168,0.38 c0.222,0,0.445-0.037,0.66-0.112c0.262-0.091,0.489-0.244,0.686-0.426c0.258,0.278,0.583,0.489,0.961,0.586 c0.164,0.042,0.33,0.062,0.495,0.062c0.485,0,0.96-0.177,1.331-0.507c0.916-0.817,1.279-1.627,1.492-2.242 c0.369-1.063,0.731-2.129,1.093-3.195c0.643-1.893,1.308-3.851,2.001-5.75c0.865-2.37,1.668-4.79,2.445-7.131 c1.452-4.374,2.953-8.896,4.859-13.062c0.143-0.275,0.223-0.587,0.223-0.918C53.465,28.267,52.572,27.371,51.467,27.371z M44.975,30.982c-0.039,0.162-0.111,0.385-0.163,0.549c-0.12,0.372-0.24,0.742-0.36,1.11c-0.069-0.035-0.141-0.066-0.215-0.093 c-0.222-0.081-0.453-0.12-0.683-0.12c-0.371,0-0.737,0.103-1.056,0.301c0.68-1.045,1.222-2.117,1.672-3.154 C44.227,30.126,44.511,30.641,44.975,30.982z M37.217,60.062c-0.325-0.236-0.838-0.411-0.941-0.721 c-0.21-0.632-0.344-1.289-0.474-1.947c0.242-0.005,0.475-0.065,0.698-0.155c0.33,0.517,0.648,1.039,0.922,1.583 c0.028,0.086,0.059,0.166,0.087,0.251C37.533,59.344,37.308,59.735,37.217,60.062z M44.059,49.796 c-1.085,2.973-2.066,5.984-3.105,8.975c-0.16,0.462-0.374,0.906-0.934,1.405c-0.177-0.498-0.362-0.993-0.536-1.492 c-0.034-0.197-0.09-0.399-0.189-0.604c-0.013-0.026-0.028-0.048-0.04-0.074c-1.081-3.567-2.245-7.085-4.938-9.853 c-0.346-0.356-0.592-0.808-0.953-1.312c-0.651,0.595-1.043,0.953-1.536,1.404c1.473,2.023,3.504,3.672,4.181,6.104 c-0.027-0.001-0.053-0.01-0.081-0.01c-0.267,0-0.536,0.059-0.794,0.171c-1.244-1.766-2.518-3.574-4.017-5.702 c-1.37,2.145-2.653,3.859-3.612,5.739c-0.947,1.856-1.565,3.878-2.453,6.15c-0.346-0.805-0.613-1.368-0.835-1.948 c-3.254-8.497-6.486-17.002-9.766-25.488c-0.513-1.328-1.238-2.574-1.913-3.957c2.034,0,4.134,0,6.542,0 c-1.258,0.989-0.985,1.947-0.566,3.041c2.23,5.82,4.391,11.666,6.58,17.502c0.189,0.505,0.405,1,0.682,1.681 c1.139-1.335,2.165-2.539,3.332-3.907c-0.538-0.307-0.969-0.737-1.44-0.786c-1.501-0.156-2.013-1.178-2.289-2.4 c-0.307-1.361-0.452-2.761-0.806-4.108c-0.152-0.581-0.587-1.126-1.001-1.593c-1.606-1.809-1.759-2.027-0.382-4.033 c1.473-2.147,3.133-4.18,4.843-6.148c1.894-2.18,3.881-4.264,4.188-7.373c0.251,0,0.476,0.002,0.693,0.002 c0.126,0,0.248-0.001,0.371-0.003c2.024-0.032,3.343-2.101,2.313-3.827c-0.605-1.014-1.501-1.874-2.349-2.72 c-1.681-1.677-1.92-2.662-1.064-4.857c0.85-2.179,1.683-4.364,2.85-6.472c-0.227,1.336-0.386,2.689-0.695,4.006 c-0.747,3.185-0.2,6.076,1.756,8.709c0.539,0.726,1.033,1.488,1.519,2.252c1.671,2.631,1.289,4.502-1.204,6.366 c-2.455,1.836-4.925,3.66-7.286,5.612c-1.803,1.491-3.262,3.316-3.863,5.644c-0.214,0.829-0.179,1.723-0.258,2.59 c0.272,0.02,0.425,0.051,0.498,0.051c0.027,0,0.043-0.004,0.051-0.015c2.475-3.513,5.976-5.939,9.181-8.684 c1.181-1.012,2.306-2.113,3.32-3.29c2.688-3.12,2.744-6.104,0.304-9.456c-0.389-0.534-0.722-1.108-1.081-1.663 c0.239-0.212,0.478-0.424,0.717-0.636c0.236,0.483,0.39,1.033,0.721,1.439c2.179,2.674,3.328,5.838,4.35,9.054 c0.17,0.535,0.146,1.235-0.047,1.765c-1.329,3.661-3.191,6.914-6.748,8.952c-1.962,1.124-3.816,2.443-5.668,3.746 c-0.762,0.536-1.389,1.263-2.279,2.09c1.279,0.93,2.332,1.761,3.462,2.47c0.081,0.051,0.194,0.073,0.322,0.073 c0.282,0,0.633-0.107,0.849-0.244c2.122-1.35,4.311-2.626,6.269-4.188c1.13-0.902,1.895-2.272,2.768-3.472 c0.501-0.689,0.888-1.46,1.559-2.045c0.554,3.496-2.247,4.777-4.518,6.533c0.507,0.318,0.862,0.54,1.264,0.793 c-2.028,1.337-3.972,2.62-5.239,3.455c1.922,1.992,3.745,3.88,5.444,5.64c1.415-4.25,3.03-9.098,4.642-13.946 c0.523-1.574,1.049-3.146,1.557-4.725c0.315-0.981,0.656-1.985-0.544-2.807c1.863,0,3.725,0,5.302,0 C48.467,35.893,46.555,42.954,44.059,49.796z M40.226,35.508c-0.173,0.245-0.344,0.494-0.514,0.744 c-0.574,0.842-1.116,1.637-1.732,2.129c-1.454,1.16-3.045,2.154-4.731,3.207c-0.334,0.209-0.668,0.417-1.001,0.627 c-0.27-0.184-0.542-0.377-0.821-0.58c0.111-0.094,0.219-0.179,0.328-0.256l0.264-0.186c1.701-1.198,3.459-2.436,5.247-3.461 C38.406,37.08,39.383,36.325,40.226,35.508z M40.72,43.873l-0.897,2.694l-0.172,0.518l-1.074-1.113l-0.404-0.419L40.72,43.873z"/><path fill="#8c6c9e" d="M30.094,46.767c0.474-0.52,0.779-0.855,1.146-1.258c-1.155-0.902-2.167-1.693-3.394-2.651 C27.335,45.141,29.372,45.412,30.094,46.767z"/></svg>