mtllib model_14.mtl
o model_14
v 0.06680932641029358 -0.14578774571418762 3.6866862773895264 
v 0.05980817973613739 -0.1350642740726471 3.7176101207733154 
v 0.05980817973613739 -0.1350642740726471 3.655762195587158 
v 0.025999898090958595 -0.08328109234571457 3.655762195587158 
v 0.042905114591121674 -0.10917433351278305 3.6429574489593506 
v 0.025999898090958595 -0.08328109234571457 3.7176101207733154 
v 0.018998747691512108 -0.07255763560533524 3.6866862773895264 
v 0.042905114591121674 -0.10917433351278305 3.730415105819702 
vn -5.881516933441162 -3.839933395385742 0.015345185995101929 
vn -5.881516933441162 -3.839933395385742 0.015345185995101929 
vn -5.881516933441162 -3.839933395385742 0.015345185995101929 
vn -5.881516933441162 -3.839933395385742 0.015345185995101929 
vn -5.881516933441162 -3.839933395385742 0.015345185995101929 
vn -5.881516933441162 -3.839933395385742 0.015345185995101929 
vn -5.881516933441162 -3.839933395385742 0.015345185995101929 
vn -5.881516933441162 -3.839933395385742 0.015345185995101929 
s on 
f 1//1 2//2 3//3 
f 2//2 4//4 3//3 
f 3//3 4//4 5//5 
f 4//4 5//5 5//5 
f 5//5 5//5 2//2 
f 5//5 2//2 2//2 
f 2//2 2//2 2//2 
f 2//2 6//6 2//2 
f 2//2 6//6 4//4 
f 6//6 7//7 4//4 
f 2//2 8//8 6//6 

